<?xml version="1.0" standalone="no"?>
<!DOCTYPE svg PUBLIC "-//W3C//DTD SVG 20010904//EN"
 "http://www.w3.org/TR/2001/REC-SVG-20010904/DTD/svg10.dtd">
<svg version="1.0" xmlns="http://www.w3.org/2000/svg"
 width="100%" height="100%" viewBox="0 0 1500.000000 1600.000000"
 preserveAspectRatio="xMidYMid meet">
<metadata>
Created by potrace 1.15, written by Peter Selinger 2001-2017
</metadata>
<g transform="translate(0.000000,1600.000000) scale(0.100000,-0.100000)"
fill="#000000" stroke="none">
<path d="M8935 12759 c-49 -5 -168 -15 -262 -24 -178 -16 -394 -35 -683 -60
-91 -8 -244 -21 -340 -30 -96 -9 -251 -22 -345 -30 -93 -8 -249 -22 -345 -30
-96 -9 -245 -21 -330 -28 -157 -12 -196 -23 -238 -65 -10 -9 -39 -35 -66 -57
-28 -22 -71 -60 -97 -85 -60 -57 -166 -152 -180 -161 -10 -6 -103 -90 -203
-182 -28 -26 -66 -58 -83 -70 -18 -12 -33 -28 -33 -34 0 -7 -7 -13 -15 -13 -8
0 -17 -11 -21 -25 -3 -14 -10 -25 -15 -25 -12 0 -11 -26 1 -64 6 -17 14 -101
20 -186 9 -144 16 -225 55 -667 38 -423 46 -528 57 -675 l11 -158 29 0 c21 0
28 -5 28 -20 0 -13 -7 -20 -20 -20 -19 0 -21 -5 -18 -72 3 -70 4 -73 28 -73
21 0 26 6 30 35 4 27 10 36 28 38 20 3 22 -1 22 -38 0 -48 -34 -90 -75 -90
-24 0 -25 -2 -25 -58 0 -32 3 -62 8 -66 4 -4 13 -83 20 -174 22 -299 28 -353
39 -360 6 -4 14 -18 18 -31 4 -14 11 -29 16 -35 41 -49 49 -60 49 -68 0 -5 5
-14 10 -21 41 -48 50 -62 50 -74 0 -7 4 -13 8 -13 5 0 26 -26 48 -57 21 -32
44 -62 51 -66 7 -4 13 -15 13 -22 0 -8 3 -15 8 -15 4 0 18 -17 32 -38 14 -20
28 -39 31 -42 14 -11 79 -101 79 -109 0 -27 109 -27 143 -1 14 11 30 20 36 20
6 0 11 4 11 10 0 5 11 12 25 16 14 3 25 10 25 14 0 4 12 11 26 14 15 4 32 12
40 19 26 23 40 32 89 57 28 14 52 28 55 31 11 12 128 79 139 79 6 0 11 3 11 8
0 7 9 13 66 42 16 8 35 20 42 27 7 7 20 13 28 13 8 0 14 4 14 8 0 4 12 13 28
20 50 23 72 37 72 44 0 5 11 8 25 8 14 0 25 -4 25 -9 0 -5 20 -12 45 -15 25
-4 45 -11 45 -15 0 -5 22 -11 50 -15 27 -4 52 -11 55 -16 3 -5 26 -12 50 -16
25 -3 45 -10 45 -14 0 -5 23 -11 50 -15 28 -4 50 -10 50 -15 0 -4 20 -11 45
-14 24 -4 47 -11 50 -15 2 -5 25 -12 50 -15 24 -4 47 -11 50 -16 3 -5 26 -12
50 -16 25 -3 48 -10 50 -15 3 -4 26 -11 50 -15 25 -3 45 -10 45 -15 0 -5 20
-9 45 -9 25 0 45 5 45 10 0 6 6 10 13 10 7 0 24 12 37 28 14 15 47 45 74 67
27 22 71 60 97 85 26 25 75 70 110 100 34 30 69 63 78 73 8 9 19 17 23 17 3 0
33 25 65 55 183 174 184 175 235 175 26 0 49 -4 52 -9 3 -4 60 -11 128 -15 67
-4 130 -12 139 -17 9 -5 67 -10 127 -11 106 -3 111 -2 132 22 20 23 21 30 14
165 -3 77 -9 145 -13 150 -3 6 -12 87 -19 180 -7 94 -19 247 -28 340 -8 94
-21 244 -29 335 -8 91 -21 244 -30 340 -9 96 -22 252 -30 345 -8 94 -22 247
-30 340 -8 94 -22 249 -30 345 -9 96 -22 249 -30 340 -8 91 -20 230 -26 309
-7 98 -16 149 -25 158 -8 8 -14 19 -14 24 0 5 -6 9 -14 9 -8 0 -16 4 -18 9 -5
15 -59 18 -153 10z m44 -172 c6 -7 15 -74 21 -148 6 -74 17 -208 25 -299 40
-447 46 -527 56 -675 6 -88 14 -167 17 -175 3 -8 12 -87 19 -175 33 -423 40
-510 43 -510 3 0 23 -245 36 -427 3 -43 10 -78 15 -78 5 0 6 -28 3 -69 -7 -72
0 -121 16 -121 6 0 10 16 10 35 0 31 3 35 25 35 22 0 25 -4 25 -38 0 -41 -23
-82 -46 -82 -13 0 -14 -17 -9 -122 3 -68 11 -140 17 -160 15 -50 5 -71 -29
-64 -16 3 -77 8 -138 12 -60 3 -115 10 -120 15 -6 4 -65 9 -130 11 l-120 3
-47 -45 c-71 -68 -169 -156 -201 -181 -16 -12 -48 -40 -72 -63 -56 -54 -163
-149 -195 -174 -14 -11 -55 -48 -90 -82 -60 -58 -66 -61 -99 -55 -20 4 -41 11
-46 15 -6 5 -30 12 -53 16 -23 4 -45 10 -47 15 -3 4 -26 11 -50 15 -25 3 -45
10 -45 14 0 4 -20 11 -45 14 -24 4 -47 11 -50 15 -2 5 -25 12 -50 15 -24 4
-47 11 -50 16 -3 4 -24 11 -48 15 -23 4 -46 11 -52 15 -5 4 -29 11 -52 15 -24
4 -43 10 -43 15 0 4 -21 11 -47 15 -27 4 -51 11 -54 16 -3 5 -33 12 -68 15
-54 6 -66 4 -91 -15 -16 -11 -34 -21 -40 -21 -5 0 -10 -4 -10 -10 0 -5 -11
-12 -25 -16 -14 -3 -25 -9 -25 -13 0 -4 -12 -12 -27 -19 -36 -15 -116 -63
-123 -72 -3 -4 -16 -11 -30 -15 -14 -4 -27 -11 -30 -14 -9 -12 -127 -81 -139
-81 -6 0 -11 -3 -11 -8 0 -7 -9 -13 -66 -42 -16 -8 -35 -20 -42 -27 -7 -7 -19
-13 -27 -13 -7 0 -15 -3 -17 -7 -1 -5 -21 -18 -43 -30 l-41 -21 -19 29 c-11
16 -23 29 -27 29 -5 0 -8 5 -8 11 0 6 -8 21 -17 34 -10 12 -25 33 -33 45 -8
12 -23 31 -32 42 -10 12 -18 27 -18 33 0 7 -7 15 -15 19 -8 3 -15 12 -15 21 0
8 -3 15 -7 15 -5 0 -19 18 -33 40 -13 22 -28 40 -32 40 -4 0 -8 5 -8 11 0 6
-8 21 -17 34 -10 12 -25 33 -33 45 -8 12 -21 29 -29 37 -8 8 -17 56 -22 121
-30 347 -40 464 -54 617 -8 94 -22 249 -30 345 -9 96 -22 249 -30 340 -8 91
-22 244 -30 340 -9 96 -20 247 -26 335 -6 88 -14 168 -20 177 -5 10 -9 41 -9
69 l0 51 273 -7 c149 -4 288 -11 307 -16 19 -5 68 -9 108 -9 67 0 75 2 98 27
l26 28 -7 150 c-4 82 -11 157 -15 165 -4 8 -11 85 -14 170 -4 85 -12 165 -18
177 -16 33 -3 53 34 54 18 1 78 5 133 10 55 5 174 14 265 20 91 6 172 14 180
17 8 3 87 12 175 19 423 33 510 40 510 43 0 2 77 9 170 16 94 8 248 21 342 29
95 8 249 21 342 28 93 6 173 15 177 20 11 10 20 9 33 -6z m-2525 -314 c4 -21
13 -114 21 -208 8 -93 18 -192 21 -218 l6 -49 -258 7 c-247 6 -334 15 -334 34
0 5 11 16 25 25 13 9 37 28 53 44 15 15 50 45 77 67 27 22 70 60 96 85 62 59
156 143 194 172 17 12 41 35 55 50 13 16 27 28 31 28 4 0 10 -17 13 -37z"/>
<path d="M8266 11457 c-40 -41 -71 -67 -73 -59 -3 6 -9 12 -14 12 -11 0 -103
69 -107 81 -6 16 -52 9 -72 -11 -11 -11 -20 -29 -20 -40 0 -20 32 -60 48 -60
5 0 24 -13 42 -30 18 -16 37 -30 42 -30 19 0 4 -25 -47 -77 -63 -64 -72 -102
-31 -128 31 -21 49 -12 116 57 57 58 82 69 97 46 4 -7 15 -17 24 -23 9 -5 35
-23 58 -39 35 -25 47 -28 69 -20 22 8 28 17 30 46 3 30 -1 39 -20 49 -13 6
-27 18 -31 25 -4 8 -13 14 -18 14 -6 0 -23 13 -39 28 l-28 29 56 58 c61 63 72
103 36 130 -32 24 -46 17 -118 -58z"/>
<path d="M6950 11353 c-8 -4 -22 -16 -30 -27 -31 -45 -83 -96 -96 -96 -8 0
-22 9 -31 20 -10 11 -22 20 -27 20 -5 0 -20 12 -33 26 -15 16 -39 28 -63 31
-36 5 -41 3 -49 -21 -17 -43 2 -71 87 -130 48 -33 48 -35 -27 -115 -28 -29
-51 -61 -51 -71 0 -22 59 -67 69 -53 3 6 15 13 26 17 11 4 37 30 58 57 40 52
68 71 75 51 2 -7 10 -12 17 -12 8 0 18 -6 22 -12 10 -16 98 -78 110 -78 17 0
53 41 53 60 0 11 -10 29 -22 40 -47 43 -93 80 -100 80 -24 0 1 43 70 118 49
54 8 120 -58 95z"/>
<path d="M7600 10512 c-46 -1 -89 -7 -95 -11 -5 -5 -36 -12 -67 -15 -32 -4
-60 -11 -63 -16 -2 -4 -25 -11 -50 -14 -25 -4 -45 -11 -45 -16 0 -4 -18 -11
-40 -15 -22 -4 -40 -11 -40 -15 0 -5 -13 -11 -30 -15 -16 -4 -30 -10 -30 -15
0 -4 -12 -11 -26 -14 -14 -4 -31 -11 -37 -17 -7 -5 -47 -32 -89 -59 -89 -59
-108 -73 -199 -160 -57 -53 -69 -71 -69 -96 0 -33 13 -44 55 -44 21 0 25 -6
30 -47 3 -27 10 -55 15 -65 5 -9 12 -39 16 -67 4 -28 10 -51 15 -51 4 0 11
-16 15 -35 3 -19 10 -35 14 -35 5 0 11 -13 15 -30 4 -16 10 -30 15 -30 5 0 12
-9 15 -20 14 -46 123 -130 167 -130 9 0 20 -4 23 -10 15 -24 145 1 205 39 50
32 100 103 100 143 0 9 6 18 13 20 9 4 13 85 14 353 2 266 6 351 15 357 7 4
32 8 55 8 23 0 45 5 48 10 8 12 262 14 269 1 3 -4 36 -11 72 -14 37 -4 72 -11
78 -17 5 -5 19 -10 31 -10 11 0 33 -7 48 -15 15 -8 43 -17 62 -21 19 -3 35
-10 35 -14 0 -5 14 -11 30 -15 17 -4 30 -10 30 -15 0 -5 14 -11 30 -15 17 -4
30 -10 30 -15 0 -4 11 -11 25 -14 14 -4 25 -11 25 -16 0 -6 4 -10 9 -10 6 0
31 -14 56 -31 26 -17 57 -31 70 -31 29 0 55 24 55 50 0 19 -51 72 -69 72 -6 0
-14 6 -18 13 -4 6 -30 23 -58 37 -27 14 -52 27 -55 30 -7 7 -65 34 -125 60
-27 11 -57 24 -65 29 -9 5 -35 12 -58 16 -23 4 -42 10 -42 15 0 4 -28 11 -62
15 -35 4 -67 11 -73 15 -13 9 -182 16 -295 12z m-256 -485 c1 -202 -2 -298
-10 -308 -6 -8 -14 -27 -18 -43 -4 -16 -21 -43 -38 -60 -30 -29 -36 -31 -109
-31 l-77 0 -46 49 c-26 26 -49 59 -52 72 -3 13 -10 24 -14 24 -5 0 -12 15 -15
33 -4 17 -11 37 -16 43 -5 6 -12 33 -15 60 -4 27 -10 54 -15 59 -4 6 -11 44
-15 86 l-6 75 43 35 c24 18 50 38 57 44 7 5 19 16 28 23 28 26 41 7 47 -74 4
-42 7 -96 7 -120 0 -24 4 -45 8 -48 5 -3 12 -46 15 -96 8 -101 18 -120 66
-120 21 0 32 6 36 21 9 26 -5 261 -16 274 -4 6 -9 64 -11 130 l-3 119 40 21
c54 28 108 44 119 34 5 -4 9 -140 10 -302z"/>
<path d="M2960 12254 c-14 -3 -39 -12 -57 -20 -17 -8 -35 -14 -41 -14 -5 0
-12 -7 -16 -15 -3 -8 -11 -15 -17 -15 -10 0 -43 -32 -86 -84 -7 -8 -15 -26
-19 -40 -3 -14 -10 -26 -15 -26 -5 0 -9 -7 -9 -16 0 -14 -12 -45 -56 -141 -8
-17 -14 -36 -14 -42 0 -6 -4 -11 -10 -11 -5 0 -10 -8 -10 -17 -1 -10 -9 -36
-20 -58 -11 -22 -19 -46 -20 -52 0 -7 -4 -13 -9 -13 -5 0 -12 -16 -15 -35 -4
-19 -11 -35 -16 -35 -6 0 -10 -6 -10 -12 0 -7 -6 -25 -14 -40 -8 -15 -17 -40
-21 -57 -4 -17 -10 -31 -15 -31 -4 0 -11 -16 -14 -35 -4 -19 -11 -35 -16 -35
-6 0 -10 -5 -10 -11 0 -9 -15 -45 -56 -136 -8 -17 -14 -38 -14 -47 0 -9 -4
-16 -9 -16 -5 0 -12 -13 -16 -30 -4 -16 -11 -30 -16 -30 -5 0 -9 -7 -9 -16 0
-14 -12 -45 -56 -141 -8 -17 -14 -36 -14 -42 0 -6 -4 -11 -10 -11 -5 0 -10 -8
-10 -17 -1 -10 -9 -36 -20 -58 -11 -22 -19 -46 -20 -52 0 -7 -4 -13 -9 -13 -5
0 -12 -16 -15 -35 -4 -19 -11 -35 -16 -35 -6 0 -10 -6 -10 -12 0 -7 -6 -25
-14 -40 -8 -15 -17 -40 -21 -57 -4 -17 -10 -31 -15 -31 -4 0 -11 -16 -14 -35
-4 -19 -11 -35 -16 -35 -6 0 -10 -5 -10 -11 0 -9 -13 -40 -50 -124 -37 -84
-50 -115 -50 -124 0 -6 -4 -11 -10 -11 -5 0 -10 -7 -10 -16 0 -14 -12 -45 -56
-141 -8 -17 -14 -36 -14 -42 0 -6 -4 -11 -10 -11 -5 0 -10 -8 -10 -17 -1 -10
-9 -36 -20 -58 -11 -22 -19 -46 -20 -52 0 -7 -4 -13 -9 -13 -5 0 -12 -16 -15
-35 -4 -19 -11 -35 -16 -35 -6 0 -10 -6 -10 -12 0 -7 -6 -25 -14 -40 -8 -15
-17 -40 -21 -57 -4 -17 -10 -31 -15 -31 -4 0 -11 -16 -14 -35 -4 -19 -11 -35
-16 -35 -6 0 -10 -5 -10 -11 0 -9 -21 -60 -50 -124 -33 -71 -33 -69 32 -142
34 -37 63 -70 65 -73 3 -3 1 28 -2 68 -7 62 -5 75 10 92 31 35 45 25 46 -32 3
-106 5 -110 89 -133 122 -34 120 -32 88 -60 l-27 -23 -61 19 c-34 10 -66 19
-71 19 -17 0 -9 -22 21 -60 28 -36 29 -38 11 -54 -9 -9 -22 -16 -28 -16 -5 0
-56 56 -112 124 -104 126 -131 150 -131 118 0 -9 -7 -30 -15 -46 -8 -15 -15
-29 -15 -30 0 -1 17 0 38 2 51 4 69 -9 55 -41 -8 -18 -19 -24 -43 -24 -32 0
-60 -23 -60 -49 0 -23 80 -114 100 -114 25 0 60 34 60 59 0 19 18 31 46 31 21
0 18 -59 -5 -96 -20 -33 -75 -64 -113 -64 -33 0 -60 21 -103 80 -35 48 -38 50
-51 32 -7 -10 -16 -31 -19 -45 -4 -15 -11 -27 -15 -27 -4 0 -11 -16 -14 -35
-4 -19 -11 -35 -16 -35 -4 0 -11 -13 -15 -30 -4 -16 -11 -32 -16 -35 -5 -4 -9
-13 -9 -22 0 -8 -7 -30 -16 -49 -12 -25 -13 -38 -6 -47 8 -10 5 -20 -13 -40
-21 -22 -25 -36 -25 -86 0 -33 5 -63 10 -66 6 -3 10 -14 10 -23 0 -44 87 -163
128 -176 12 -4 22 -11 22 -16 0 -4 12 -11 27 -15 15 -3 31 -12 35 -18 5 -9
244 -13 945 -17 l938 -5 5 -412 c4 -311 8 -415 18 -425 6 -6 12 -18 12 -25 0
-31 96 -137 135 -149 11 -4 22 -10 25 -14 16 -22 211 -47 244 -32 11 6 35 13
51 17 17 3 46 13 65 23 43 21 130 100 130 119 0 7 4 13 10 13 5 0 13 18 16 40
4 22 11 43 15 46 5 3 9 185 9 404 l0 398 178 4 c182 4 209 9 260 56 7 6 18 12
23 12 15 0 42 31 79 90 31 51 34 61 34 140 1 64 -4 96 -18 128 -11 23 -23 42
-27 42 -4 0 -10 9 -14 19 -3 11 -17 27 -31 35 -22 15 -25 15 -30 1 -4 -9 5
-30 21 -51 26 -34 28 -64 3 -64 -18 1 -90 110 -84 126 3 8 13 14 22 14 25 0
10 24 -22 35 -16 5 -32 14 -36 20 -4 5 -82 11 -183 13 l-175 4 0 659 c0 371
-4 660 -9 663 -5 3 -12 22 -15 41 -4 19 -11 35 -16 35 -6 0 -10 6 -10 13 0 15
-93 107 -108 107 -5 0 -15 6 -21 14 -7 8 -30 17 -52 21 -21 4 -41 11 -45 16
-7 12 -171 12 -179 -1 -3 -5 -16 -10 -27 -10 -56 0 -196 -107 -213 -162 -4
-13 -13 -29 -19 -37 -8 -10 -12 -207 -14 -688 l-3 -673 -622 0 c-384 0 -628 4
-637 10 -10 6 -11 10 -2 10 6 0 12 6 12 13 0 6 6 24 14 39 8 15 17 40 21 57 4
17 10 31 15 31 4 0 11 16 14 35 4 19 11 35 16 35 4 0 11 14 15 30 4 17 11 30
16 30 5 0 9 7 9 16 0 14 12 45 56 141 8 17 14 36 14 42 0 6 5 11 10 11 6 0 10
8 10 18 1 9 9 35 20 57 11 22 19 46 20 53 0 6 4 12 9 12 5 0 12 16 15 35 4 19
11 35 16 35 6 0 10 6 10 13 0 6 6 24 14 39 8 15 17 40 21 57 4 17 11 31 16 31
5 0 9 6 9 13 0 6 7 24 14 40 14 25 13 27 -5 27 -14 0 -19 7 -19 25 0 19 5 25
23 25 33 0 47 13 49 44 2 16 8 31 15 33 7 3 13 10 13 17 1 6 9 29 20 51 11 22
19 46 20 53 0 6 5 12 10 12 6 0 10 5 10 11 0 11 15 47 51 125 10 23 19 49 19
58 0 9 4 16 9 16 5 0 12 14 16 30 4 17 11 30 16 30 5 0 9 8 9 18 1 9 9 35 20
57 11 22 19 46 20 53 0 6 4 12 9 12 5 0 12 16 15 35 4 19 11 35 16 35 6 0 10
5 10 11 0 9 13 40 50 124 37 84 50 115 50 124 0 6 5 11 10 11 6 0 10 6 10 13
0 6 6 24 14 39 8 15 17 40 21 57 4 17 10 31 15 31 4 0 11 16 14 35 4 19 11 35
16 35 4 0 11 14 15 30 4 17 11 30 16 30 5 0 9 7 9 16 0 9 6 30 14 47 41 91 56
127 56 136 0 6 4 11 10 11 5 0 12 16 16 35 3 19 10 35 14 35 4 0 11 16 14 35
4 19 11 35 15 35 5 0 12 16 15 35 4 19 11 35 16 35 6 0 10 5 10 11 0 9 13 40
50 124 37 83 50 115 50 124 0 5 6 11 13 14 16 5 17 224 1 235 -6 4 -15 17 -18
30 -9 28 -98 118 -126 127 -11 3 -20 11 -20 16 0 5 -6 9 -12 9 -7 0 -26 7 -43
16 -30 16 -157 27 -205 18z m1565 -3531 c19 -27 35 -51 35 -54 0 -8 -80 -59
-94 -59 -23 0 -48 37 -41 59 5 15 2 21 -9 21 -21 0 -21 38 1 62 9 10 29 18 44
18 23 0 36 -10 64 -47z m-257 -93 c20 0 23 -4 19 -21 -8 -30 21 -72 45 -66 23
7 37 -21 17 -34 -27 -17 -58 -9 -81 21 -12 17 -30 30 -40 30 -16 0 -13 -7 17
-46 19 -26 35 -50 35 -53 0 -3 -18 -21 -40 -39 -32 -27 -43 -31 -59 -22 -29
15 -94 98 -86 110 12 19 32 10 64 -30 35 -44 46 -48 55 -24 4 10 -6 31 -24 54
-16 21 -30 42 -30 48 0 13 29 24 42 15 8 -4 9 4 5 24 -7 33 10 60 27 43 6 -5
21 -10 34 -10z m-161 -189 c58 -74 61 -80 45 -94 -16 -14 -21 -14 -58 2 -87
39 -93 38 -51 -8 37 -41 43 -61 20 -68 -6 -2 -41 31 -78 73 -66 76 -67 77 -47
96 19 20 20 20 72 -7 28 -14 54 -24 57 -22 2 3 -10 21 -27 41 -31 35 -35 67
-8 65 7 0 41 -35 75 -78z m-123 -131 c41 -45 45 -71 16 -100 -32 -32 -73 -26
-109 15 -37 42 -39 70 -9 102 32 34 60 29 102 -17z m-72 -133 c15 -21 18 -31
9 -40 -8 -8 -20 -2 -46 23 -39 38 -45 31 -15 -15 44 -66 12 -81 -62 -29 l-53
37 44 -45 c40 -43 47 -68 18 -68 -14 0 -147 144 -147 159 0 5 9 13 21 16 14 5
37 -4 75 -29 30 -20 54 -33 54 -29 -1 5 -14 33 -30 63 -28 51 -28 55 -13 72
16 18 19 16 71 -34 29 -29 63 -66 74 -81z"/>
<path d="M12060 12211 c-8 -4 -33 -11 -55 -14 -22 -4 -58 -15 -80 -26 l-40
-20 43 -7 c23 -3 45 -10 47 -15 8 -12 -47 -50 -63 -44 -7 3 -31 8 -52 11 -33
5 -39 3 -45 -16 -5 -15 -1 -28 14 -44 l21 -23 -20 -18 c-18 -16 -24 -17 -41
-7 -16 11 -20 10 -26 -5 -3 -10 -14 -37 -24 -60 -11 -23 -19 -47 -19 -52 0 -6
-4 -11 -10 -11 -5 0 -10 -8 -10 -17 -1 -10 -9 -36 -20 -58 -11 -22 -19 -46
-20 -52 0 -7 -4 -13 -9 -13 -5 0 -12 -16 -15 -35 -4 -19 -11 -35 -16 -35 -6 0
-10 -6 -10 -12 0 -7 -6 -25 -14 -40 -8 -15 -17 -40 -21 -57 -4 -17 -10 -31
-15 -31 -4 0 -11 -16 -14 -35 -4 -19 -11 -35 -16 -35 -6 0 -10 -5 -10 -11 0
-6 -6 -25 -14 -42 -44 -96 -56 -127 -56 -141 0 -9 -4 -16 -9 -16 -5 0 -12 -13
-16 -30 -4 -16 -11 -30 -16 -30 -5 0 -9 -7 -9 -16 0 -14 -12 -45 -56 -141 -8
-17 -14 -36 -14 -42 0 -6 -4 -11 -10 -11 -5 0 -10 -8 -10 -17 -1 -10 -9 -36
-20 -58 -11 -22 -19 -46 -20 -52 0 -7 -4 -13 -9 -13 -5 0 -12 -16 -15 -35 -4
-19 -11 -35 -16 -35 -6 0 -10 -6 -10 -12 0 -7 -6 -25 -14 -40 -8 -15 -17 -40
-21 -57 -4 -17 -10 -31 -15 -31 -4 0 -11 -16 -14 -35 -4 -19 -11 -35 -16 -35
-6 0 -10 -5 -10 -11 0 -6 -6 -25 -14 -42 -44 -96 -56 -127 -56 -141 0 -9 -4
-16 -9 -16 -5 0 -12 -13 -16 -30 -4 -16 -11 -30 -16 -30 -5 0 -9 -7 -9 -16 0
-14 -12 -45 -56 -141 -8 -17 -14 -36 -14 -42 0 -6 -4 -11 -10 -11 -5 0 -10 -8
-10 -17 -1 -10 -9 -36 -20 -58 -11 -22 -19 -46 -20 -52 0 -7 -4 -13 -9 -13 -5
0 -12 -16 -15 -35 -4 -19 -11 -35 -16 -35 -6 0 -10 -6 -10 -12 0 -7 -6 -25
-14 -40 -8 -15 -17 -40 -21 -57 -4 -17 -10 -31 -15 -31 -4 0 -11 -16 -14 -35
-4 -19 -11 -35 -16 -35 -6 0 -10 -5 -10 -11 0 -6 -6 -25 -14 -42 -44 -96 -56
-127 -56 -141 0 -9 -4 -16 -9 -16 -5 0 -12 -13 -16 -30 -4 -16 -11 -30 -16
-30 -5 0 -9 -7 -9 -16 0 -9 -6 -30 -14 -47 -41 -91 -56 -127 -56 -136 0 -6 -4
-11 -10 -11 -5 0 -12 -16 -16 -35 -3 -19 -10 -35 -14 -35 -4 0 -11 -16 -14
-35 -4 -19 -11 -35 -15 -35 -5 0 -12 -16 -15 -35 -4 -19 -11 -35 -16 -35 -6 0
-10 -6 -10 -12 0 -7 -6 -25 -14 -40 -8 -15 -17 -40 -21 -57 -4 -17 -10 -31
-15 -31 -4 0 -11 -16 -14 -35 -4 -19 -11 -35 -15 -35 -5 0 -12 -20 -15 -45 -4
-25 -11 -45 -17 -45 -12 0 -12 -167 0 -175 5 -3 12 -19 16 -35 4 -17 11 -30
16 -30 5 0 9 -6 9 -14 0 -7 26 -37 58 -65 78 -70 77 -69 109 -76 15 -4 37 -11
48 -16 12 -5 394 -10 935 -12 l915 -2 5 -415 c5 -392 6 -417 25 -450 11 -19
26 -40 33 -48 6 -7 12 -17 12 -21 0 -11 92 -78 120 -86 14 -4 28 -13 32 -19
11 -16 270 -15 276 2 2 6 11 12 19 12 38 0 163 105 163 136 0 8 4 14 9 14 6 0
13 20 17 45 3 25 10 48 15 51 5 3 9 43 9 90 0 66 -3 84 -14 84 -8 0 -28 12
-45 26 -25 21 -31 34 -31 64 0 42 35 94 71 105 19 6 20 14 19 78 -1 40 -2 132
-1 205 l1 132 164 0 c91 0 167 4 170 9 3 4 19 11 34 14 20 4 33 15 42 37 12
28 15 30 28 16 13 -13 18 -12 42 13 15 15 38 47 50 72 13 24 27 47 32 50 6 4
10 44 11 91 1 67 -4 94 -20 129 -25 52 -106 137 -140 145 -13 4 -23 10 -23 15
0 4 -23 11 -50 15 -28 4 -53 11 -56 15 -3 5 -68 9 -145 9 l-139 0 0 644 c0
419 -4 647 -10 651 -5 3 -10 16 -10 27 0 52 -82 168 -130 183 -11 3 -20 10
-20 15 0 5 -15 12 -32 15 -18 4 -36 13 -40 19 -12 19 -237 13 -273 -7 -16 -9
-36 -17 -42 -17 -7 0 -13 -4 -13 -10 0 -5 -6 -10 -13 -10 -18 0 -96 -86 -121
-130 -12 -23 -20 -64 -23 -120 -5 -81 -4 -84 11 -63 19 26 93 50 108 35 17
-17 -1 -52 -26 -52 -30 0 -46 -18 -46 -52 0 -23 -4 -28 -25 -28 l-25 0 0 -550
0 -550 -635 0 c-417 0 -635 3 -635 10 0 6 4 10 9 10 5 0 12 16 15 35 4 19 11
35 16 35 6 0 10 6 10 13 0 6 6 24 14 39 8 15 17 40 21 57 4 17 10 31 15 31 4
0 11 16 14 35 4 19 11 35 16 35 6 0 10 5 10 11 0 9 13 40 50 124 37 84 50 115
50 124 0 6 5 11 10 11 6 0 10 8 10 18 1 9 9 35 20 57 11 22 19 46 20 53 0 6 4
12 9 12 5 0 12 16 15 35 4 19 11 35 16 35 6 0 10 5 10 11 0 11 15 47 51 125
10 23 19 49 19 58 0 9 4 16 9 16 5 0 12 14 16 30 4 17 11 30 16 30 5 0 9 8 9
18 1 9 9 35 20 57 11 22 19 46 20 53 0 6 4 12 9 12 5 0 12 16 15 35 4 19 11
35 16 35 6 0 10 5 10 11 0 9 13 40 50 124 37 84 50 115 50 124 0 6 4 11 10 11
5 0 12 16 16 35 3 19 10 35 15 35 5 0 9 8 9 18 0 10 6 26 14 37 7 11 17 35 21
53 3 17 10 32 15 32 5 0 11 14 15 30 4 17 11 30 16 30 5 0 9 7 9 16 0 9 6 30
14 47 41 91 56 127 56 136 0 6 5 11 10 11 6 0 10 6 10 13 0 6 6 24 14 39 8 15
17 40 21 57 4 17 11 31 15 31 5 0 12 16 16 35 3 19 10 35 14 35 5 0 11 14 15
30 4 17 11 30 16 30 5 0 9 7 9 16 0 9 6 30 14 47 41 91 56 127 56 136 0 6 5
11 10 11 6 0 10 6 10 13 0 6 6 24 14 39 8 15 17 40 21 57 4 17 10 31 15 31 4
0 11 16 14 35 4 19 11 35 16 35 6 0 10 5 10 11 0 9 15 45 56 136 8 17 14 38
14 46 0 9 6 17 13 20 16 5 17 195 1 205 -6 4 -15 18 -19 31 -8 27 -16 38 -56
79 -45 46 -80 72 -105 78 -13 3 -24 10 -24 14 0 7 -73 27 -135 36 -16 2 -37 0
-45 -5z"/>
<path d="M6013 8727 c-13 -14 -23 -29 -23 -35 0 -6 -4 -12 -10 -14 -10 -3 -20
-135 -40 -498 -5 -96 -12 -202 -15 -235 -3 -33 -12 -161 -20 -285 -8 -124 -17
-244 -21 -267 -7 -49 15 -109 52 -136 26 -19 124 -28 534 -47 113 -5 225 -14
250 -19 25 -6 131 -13 235 -16 105 -3 210 -10 235 -15 25 -5 140 -14 255 -20
116 -6 316 -17 445 -25 129 -9 334 -21 455 -28 121 -6 225 -15 230 -18 6 -4
106 -10 224 -13 117 -4 218 -9 223 -12 5 -3 17 1 27 10 16 15 19 15 36 -4 10
-11 31 -20 48 -20 l29 0 -26 34 c-53 70 -22 76 46 9 45 -45 49 -46 106 -46 65
0 90 16 109 69 6 16 14 36 17 45 5 10 -1 19 -18 27 -36 16 -42 48 -17 83 16
22 18 29 7 29 -7 0 -16 -9 -19 -21 -3 -12 -12 -19 -19 -17 -38 13 0 81 45 81
15 0 27 2 28 6 2 11 18 247 35 496 8 132 18 304 20 382 4 125 3 144 -13 162
-9 12 -23 21 -30 21 -7 0 -13 4 -13 9 0 5 -20 12 -45 15 -24 4 -47 11 -50 15
-2 5 -25 12 -50 15 -25 4 -45 11 -45 15 0 5 -20 12 -45 15 -24 4 -47 11 -50
16 -3 5 -26 12 -50 16 -25 3 -45 10 -45 14 0 5 -19 11 -42 15 -24 4 -49 12
-56 18 -23 18 -116 15 -136 -5 -10 -10 -22 -18 -27 -18 -5 0 -15 -5 -22 -10
-48 -41 -62 -50 -74 -50 -7 0 -13 -3 -13 -8 0 -4 -20 -18 -45 -32 -25 -14 -45
-28 -45 -32 0 -5 -5 -8 -10 -8 -12 0 -73 -41 -78 -52 -2 -5 -9 -8 -16 -8 -6 0
-21 -7 -31 -15 -46 -35 -171 -115 -181 -115 -7 0 -14 -7 -18 -15 -3 -8 -12
-15 -21 -15 -8 0 -15 -4 -15 -9 0 -5 -10 -13 -22 -17 -12 -3 -26 -10 -32 -15
-73 -61 -74 -61 -172 -14 -40 19 -77 35 -83 35 -6 0 -11 4 -11 9 0 5 -13 12
-30 16 -16 4 -30 10 -30 15 0 5 -13 11 -30 15 -16 4 -30 10 -30 15 0 5 -13 11
-30 15 -16 4 -30 10 -30 15 0 5 -13 11 -30 15 -16 4 -30 10 -30 15 0 5 -13 11
-30 15 -16 4 -30 11 -30 16 0 5 -6 9 -12 9 -7 0 -69 28 -138 63 -117 58 -130
62 -193 62 -41 0 -71 -5 -75 -12 -4 -6 -20 -15 -36 -19 -17 -4 -41 -13 -55
-20 -14 -8 -34 -14 -43 -14 -10 0 -18 -4 -18 -10 0 -5 -16 -12 -35 -16 -19 -3
-35 -10 -35 -14 0 -5 -18 -11 -40 -15 -22 -4 -40 -11 -40 -15 0 -5 -16 -12
-35 -16 -19 -3 -35 -10 -35 -14 0 -5 -18 -11 -40 -15 -22 -4 -40 -11 -40 -15
0 -5 -16 -12 -35 -16 -19 -3 -35 -10 -35 -14 0 -5 -18 -11 -40 -15 -22 -4 -40
-11 -40 -15 0 -5 -16 -12 -35 -16 -19 -3 -35 -10 -35 -14 0 -4 -11 -10 -25
-12 -17 -4 -25 -1 -25 8 0 8 -4 14 -9 14 -5 0 -12 14 -16 30 -4 17 -10 30 -15
30 -5 0 -11 14 -15 30 -4 17 -10 30 -15 30 -5 0 -11 14 -15 30 -4 17 -10 30
-15 30 -5 0 -11 14 -15 30 -4 17 -10 30 -15 30 -5 0 -11 14 -15 30 -4 17 -10
30 -15 30 -5 0 -11 14 -15 30 -4 17 -10 30 -15 30 -5 0 -11 14 -15 30 -4 17
-10 30 -15 30 -5 0 -11 14 -15 30 -4 17 -10 30 -15 30 -4 0 -11 11 -14 25 -11
44 -45 68 -100 72 -44 4 -54 1 -73 -20z m137 -363 c0 -8 4 -14 9 -14 5 0 12
-13 16 -30 4 -16 10 -30 15 -30 5 0 11 -13 15 -30 4 -16 10 -30 15 -30 5 0 11
-13 15 -30 4 -16 10 -30 15 -30 5 0 11 -13 15 -30 4 -16 10 -30 15 -30 5 0 11
-13 15 -30 4 -16 10 -30 15 -30 4 0 11 -12 15 -27 3 -15 18 -38 32 -51 23 -21
33 -23 72 -18 25 3 47 10 51 15 3 5 18 13 34 17 17 4 41 13 55 20 14 8 34 14
44 14 9 0 17 4 17 9 0 5 14 12 31 16 17 4 42 13 57 21 15 8 35 14 45 14 9 0
17 4 17 10 0 5 16 12 35 16 19 3 35 10 35 14 0 5 18 11 40 15 22 4 40 11 40
15 0 5 16 12 35 16 19 3 35 10 35 14 0 5 18 11 40 15 22 4 40 11 40 15 0 5 16
12 35 16 19 3 35 10 35 14 0 5 18 11 40 15 22 4 40 11 40 16 0 12 37 12 45 0
3 -5 19 -12 35 -16 17 -4 30 -10 30 -15 0 -5 14 -11 30 -15 17 -4 30 -11 30
-16 0 -5 5 -9 11 -9 7 0 45 -16 85 -35 40 -19 77 -35 83 -35 6 0 11 -4 11 -9
0 -5 14 -12 30 -16 17 -4 30 -10 30 -15 0 -5 14 -11 30 -15 17 -4 30 -10 30
-15 0 -5 14 -11 30 -15 17 -4 30 -10 30 -15 0 -5 14 -11 30 -15 17 -4 30 -11
30 -16 0 -5 5 -9 12 -9 6 0 39 -13 72 -29 173 -83 176 -83 254 -30 23 16 47
29 53 29 5 0 9 4 9 10 0 5 11 12 24 16 14 3 27 12 30 20 3 8 12 14 21 14 8 0
15 4 15 9 0 5 10 13 22 17 12 3 26 10 32 15 50 42 61 49 73 49 7 0 13 3 13 8
0 4 20 18 45 32 25 14 45 28 45 32 0 5 5 8 10 8 12 0 73 41 78 53 2 4 9 7 14
7 6 0 44 23 85 50 40 28 78 50 83 50 6 0 10 4 10 10 0 5 11 12 25 16 14 3 25
11 25 16 0 7 5 7 13 0 7 -6 32 -14 55 -18 23 -4 42 -10 42 -14 0 -4 20 -11 45
-14 24 -4 47 -11 50 -16 3 -4 23 -11 45 -15 22 -4 42 -10 45 -15 3 -4 25 -11
50 -14 25 -4 45 -11 45 -16 0 -5 10 -10 23 -12 19 -3 22 -8 19 -38 -7 -101
-34 -534 -45 -733 -12 -234 -11 -252 24 -245 9 2 14 -7 15 -25 1 -35 29 -66
55 -60 14 4 19 0 19 -16 0 -14 -8 -23 -27 -27 -23 -6 -32 -1 -59 31 -18 22
-36 35 -43 31 -6 -4 -11 -2 -11 3 0 6 -14 11 -31 11 -16 0 -28 -4 -25 -9 3 -5
16 -7 27 -4 19 5 21 3 16 -19 -8 -30 30 -72 55 -63 21 8 33 -12 18 -30 -21
-26 -57 -18 -85 19 -14 18 -33 33 -43 32 -11 -1 -17 7 -18 22 -1 12 -4 25 -8
29 -3 3 -1 12 5 19 16 20 9 21 -236 33 -208 11 -384 21 -915 56 -124 8 -304
19 -400 25 -96 5 -200 12 -230 15 -89 8 -498 34 -720 45 -113 5 -224 14 -248
20 -23 5 -79 10 -125 10 -45 0 -113 3 -150 7 l-68 6 6 161 c3 89 10 181 15
206 5 25 14 140 20 255 19 374 20 378 36 364 8 -6 14 -18 14 -25z"/>
<path d="M8566 6271 c-3 -4 -23 -11 -45 -14 -45 -6 -121 -37 -121 -49 0 -4 -5
-8 -11 -8 -6 0 -29 -17 -50 -39 -22 -21 -39 -44 -39 -50 0 -6 -4 -11 -9 -11
-5 0 -12 -13 -16 -30 -4 -16 -10 -30 -15 -30 -4 0 -14 -26 -21 -57 -17 -75
-17 -525 -1 -604 23 -110 101 -220 189 -264 21 -11 40 -23 43 -26 17 -21 232
-46 264 -31 11 6 38 13 59 16 43 6 117 36 117 48 0 4 6 8 13 8 33 0 147 148
147 190 0 9 6 22 13 29 17 17 18 611 0 632 -6 8 -14 31 -18 52 -4 20 -11 37
-16 37 -5 0 -9 6 -9 13 0 29 -72 105 -126 132 -21 11 -41 23 -44 27 -3 4 -29
10 -58 14 -28 3 -52 10 -52 15 0 12 -187 12 -194 0z m198 -222 c46 -24 86 -66
86 -88 0 -10 4 -21 10 -27 6 -6 10 -113 10 -264 1 -235 0 -258 -19 -295 -23
-48 -56 -85 -76 -85 -7 0 -15 -6 -17 -12 -3 -9 -30 -13 -89 -13 -101 0 -136
17 -184 90 -17 26 -20 56 -26 255 -4 124 -4 256 1 293 8 62 12 72 52 111 49
50 59 53 148 55 48 1 75 -4 104 -20z"/>
<path d="M9483 6260 c-138 -5 -143 -6 -160 -30 -10 -13 -21 -34 -24 -45 -3
-11 -4 -249 -2 -530 5 -571 5 -569 71 -581 48 -9 109 1 129 22 16 16 18 43 21
241 l3 223 70 0 c41 0 69 -4 69 -10 0 -6 5 -16 10 -23 41 -48 50 -62 50 -74 0
-7 5 -13 10 -13 6 0 10 -5 10 -10 0 -12 41 -73 53 -78 4 -2 7 -8 7 -13 0 -6 8
-22 19 -37 47 -67 111 -169 111 -175 0 -4 10 -17 23 -29 18 -19 33 -23 82 -23
51 0 64 4 85 25 20 20 25 35 25 76 0 35 -5 56 -17 68 -10 10 -18 22 -18 27 0
5 -5 15 -10 22 -41 48 -50 62 -50 72 0 7 -7 15 -15 19 -8 3 -15 12 -15 21 0 8
-4 15 -10 15 -5 0 -12 11 -16 24 -3 14 -12 27 -20 30 -8 3 -14 12 -14 21 0 8
-4 15 -10 15 -5 0 -12 11 -16 24 -3 14 -12 27 -20 30 -25 9 -15 23 32 45 51
24 144 111 144 135 0 9 4 16 9 16 5 0 14 26 21 58 6 31 14 70 17 85 3 16 1 38
-5 50 -6 12 -13 43 -17 70 -3 26 -10 47 -15 47 -4 0 -11 11 -14 25 -14 56
-139 146 -221 159 -59 9 -221 12 -382 6z m325 -210 c2 -5 10 -10 17 -10 7 0
28 -14 45 -32 31 -30 32 -34 28 -98 -2 -48 -9 -72 -22 -86 -42 -42 -67 -48
-213 -52 l-143 -4 0 145 0 146 43 4 c75 6 242 -2 245 -13z"/>
<path d="M5605 6239 c-239 -9 -254 -12 -280 -47 -20 -26 -20 -40 -16 -552 2
-289 7 -526 12 -528 5 -2 9 -9 9 -15 0 -7 14 -20 31 -29 27 -16 62 -18 313
-18 l283 0 36 37 c45 45 49 85 12 126 -14 15 -32 27 -40 27 -8 0 -15 5 -15 10
0 6 -77 10 -210 10 l-211 0 3 143 3 142 196 5 c195 5 197 5 218 30 32 40 28
99 -10 136 l-30 29 -190 3 -190 3 3 142 c3 134 4 142 23 143 11 1 101 2 201 3
l180 1 32 28 c43 39 45 100 6 137 -15 14 -35 25 -45 25 -11 0 -19 5 -19 10 0
11 -5 11 -305 -1z"/>
<path d="M6270 6241 c0 -5 -12 -12 -27 -15 -17 -4 -35 -19 -45 -37 -17 -28
-18 -73 -18 -544 0 -535 0 -537 43 -579 26 -26 87 -31 129 -12 63 30 72 66 66
283 -3 104 -3 194 -1 201 3 7 24 12 56 12 43 0 55 -4 74 -27 13 -14 23 -30 23
-35 0 -5 5 -14 10 -21 41 -48 50 -62 50 -74 0 -7 3 -13 8 -13 4 0 18 -20 32
-45 14 -25 28 -45 32 -45 5 0 8 -5 8 -10 0 -12 41 -73 53 -78 4 -2 7 -9 7 -15
0 -13 55 -93 82 -120 22 -23 97 -22 137 1 21 12 33 27 37 50 8 39 0 96 -16
114 -38 46 -50 62 -50 70 0 5 -5 14 -10 21 -39 46 -50 61 -50 69 0 5 -5 14
-10 21 -41 48 -50 62 -50 72 0 7 -7 15 -15 19 -8 3 -15 12 -15 21 0 8 -4 15
-10 15 -5 0 -10 9 -10 20 0 11 6 20 13 20 22 0 90 41 123 74 36 36 74 102 74
128 0 9 5 20 10 23 12 8 13 175 1 175 -5 0 -11 18 -15 41 -4 22 -11 46 -16 52
-75 92 -141 138 -229 159 -59 15 -481 22 -481 9z m418 -209 c34 -10 92 -63 92
-84 0 -11 4 -27 10 -37 20 -38 -39 -141 -81 -141 -9 0 -19 -4 -21 -9 -4 -11
-258 -18 -276 -7 -13 8 -18 267 -5 279 8 9 250 7 281 -1z"/>
<path d="M7275 6240 c-5 -5 -20 -18 -32 -29 l-23 -21 0 -541 0 -541 31 -29
c44 -41 112 -41 157 -1 l32 29 0 206 c0 126 -4 208 -10 212 -19 12 -11 84 11
106 28 28 94 24 94 -6 0 -14 -8 -21 -30 -25 -21 -4 -31 -11 -33 -28 -3 -20 1
-22 47 -22 27 0 53 -4 56 -10 3 -5 17 -10 30 -10 22 0 25 -6 31 -51 4 -28 13
-56 20 -64 8 -7 14 -16 14 -20 0 -3 8 -18 19 -33 56 -80 111 -169 111 -179 0
-6 7 -13 15 -17 8 -3 15 -12 15 -21 0 -8 4 -15 10 -15 5 0 12 -11 16 -25 4
-15 16 -28 30 -31 13 -3 24 -10 24 -15 0 -16 70 -10 98 8 46 30 61 55 62 101
0 23 -4 42 -10 42 -5 0 -12 11 -16 24 -3 14 -12 27 -20 30 -8 3 -14 12 -14 21
0 8 -4 15 -10 15 -5 0 -12 11 -16 24 -3 14 -12 27 -20 30 -8 3 -14 12 -14 20
0 8 -3 16 -8 18 -13 6 -121 172 -116 179 2 4 25 18 49 30 25 12 45 26 45 31 0
4 6 8 14 8 7 0 22 12 32 26 10 14 24 32 30 38 6 7 15 23 19 36 4 14 13 28 19
32 15 10 15 240 0 259 -7 8 -15 25 -19 38 -17 56 -156 161 -213 161 -11 0 -24
5 -27 10 -8 13 -486 13 -500 0z m415 -200 c36 -5 66 -14 68 -20 2 -5 9 -10 15
-10 22 0 47 -60 47 -114 0 -43 -5 -58 -28 -84 -16 -18 -43 -35 -61 -38 -17 -4
-34 -11 -37 -15 -3 -5 -61 -9 -130 -9 l-124 0 0 145 0 144 58 4 c112 7 128 6
192 -3z"/>
<path d="M4848 4423 c-10 -2 -20 -18 -24 -39 -3 -19 -10 -37 -15 -40 -5 -3 -9
-13 -9 -22 0 -9 -7 -30 -15 -45 -8 -15 -17 -43 -21 -62 -3 -19 -10 -35 -14
-35 -5 0 -11 -18 -15 -40 -4 -22 -11 -40 -16 -40 -5 0 -9 -8 -9 -17 0 -10 -7
-31 -15 -46 -8 -15 -17 -43 -21 -62 -3 -19 -10 -35 -14 -35 -5 0 -11 -18 -15
-40 -4 -22 -11 -42 -16 -46 -16 -9 -10 -41 9 -46 27 -6 52 2 52 18 0 8 4 14 9
14 5 0 12 18 16 40 10 61 30 70 162 70 102 0 114 -2 132 -22 12 -12 23 -35 27
-52 10 -53 29 -70 77 -67 21 1 22 20 2 57 -8 16 -15 39 -15 52 0 12 -4 22 -10
22 -5 0 -13 18 -16 40 -4 22 -10 40 -14 40 -5 0 -11 18 -15 40 -4 22 -10 40
-15 40 -5 0 -11 18 -15 40 -4 22 -10 40 -15 40 -4 0 -11 16 -14 35 -4 19 -13
47 -21 62 -8 15 -15 36 -15 46 0 9 -4 17 -9 17 -5 0 -12 18 -16 39 -5 29 -12
41 -28 45 -12 3 -24 5 -27 5 -3 -1 -13 -3 -22 -6z m42 -142 c0 -11 5 -23 10
-26 6 -3 10 -14 10 -23 0 -9 6 -29 14 -44 8 -15 17 -42 21 -60 4 -18 11 -35
15 -38 5 -3 11 -22 15 -43 l7 -37 -107 0 -107 0 7 37 c4 21 10 40 15 43 4 3
11 24 15 48 4 23 10 42 15 42 5 0 11 18 15 40 4 22 11 40 16 40 5 0 9 9 9 20
0 11 7 20 15 20 8 0 15 -9 15 -19z"/>
<path d="M5348 4423 c-21 -2 -38 -8 -38 -14 0 -5 -5 -9 -11 -9 -7 0 -27 -15
-45 -34 -40 -41 -54 -106 -54 -250 0 -105 16 -226 30 -226 5 0 11 -8 14 -18 4
-10 26 -28 50 -40 36 -18 59 -22 137 -21 108 1 128 6 163 36 25 22 26 26 26
149 0 153 0 153 -111 154 -61 0 -78 -3 -83 -16 -15 -39 -8 -44 59 -44 l65 0 0
-105 c0 -87 -3 -105 -15 -105 -8 0 -15 -4 -15 -9 0 -12 -85 -22 -131 -15 -96
16 -125 90 -116 306 5 146 13 166 79 198 43 21 122 27 133 11 3 -5 19 -12 35
-16 17 -4 30 -11 30 -16 0 -14 30 -11 46 6 14 13 14 17 -2 32 -9 10 -28 23
-41 30 -26 14 -147 23 -205 16z"/>
<path d="M6583 4423 c-10 -4 -13 -75 -13 -308 0 -287 1 -303 19 -308 10 -2 26
0 35 5 14 8 16 36 16 232 0 122 3 225 6 229 9 8 30 -14 38 -41 4 -12 12 -22
17 -22 5 0 9 -4 9 -9 0 -5 16 -33 35 -62 19 -30 35 -59 35 -65 0 -7 7 -14 15
-18 8 -3 15 -12 15 -21 0 -8 4 -15 10 -15 5 0 12 -11 16 -25 3 -14 9 -25 13
-25 3 0 17 -20 31 -45 14 -25 28 -45 32 -45 5 0 8 -6 8 -14 0 -26 35 -58 64
-58 15 0 29 2 32 4 2 3 5 139 5 303 0 292 -3 315 -31 315 -29 0 -32 -21 -32
-249 1 -195 -1 -231 -14 -231 -7 0 -14 7 -14 15 0 8 -4 15 -9 15 -5 0 -13 10
-17 22 -3 12 -10 26 -15 32 -42 50 -49 61 -49 73 0 7 -4 13 -9 13 -5 0 -11 8
-15 18 -3 9 -24 44 -46 77 -22 33 -43 68 -46 78 -4 9 -10 17 -14 17 -5 0 -12
10 -16 22 -3 12 -12 27 -18 34 -6 6 -20 24 -30 38 -18 25 -36 30 -63 19z"/>
<path d="M7320 4424 c-52 -10 -130 -58 -130 -80 0 -7 -6 -14 -12 -16 -10 -4
-14 -53 -16 -194 -2 -170 -1 -193 16 -224 32 -57 81 -90 151 -100 64 -9 170 2
180 18 3 5 16 12 28 16 12 4 25 16 28 27 4 10 10 19 15 19 5 0 12 16 16 35 3
19 10 38 15 41 12 7 12 304 0 304 -5 0 -11 13 -14 30 -7 33 -62 100 -83 100
-7 0 -14 4 -16 9 -3 11 -140 22 -178 15z m95 -54 c3 -5 16 -10 28 -10 35 0 67
-28 88 -77 16 -37 19 -69 19 -179 0 -83 -4 -134 -10 -134 -5 0 -10 -8 -10 -18
0 -49 -69 -92 -146 -92 -58 0 -92 15 -131 58 -22 24 -23 33 -23 195 0 161 1
173 23 204 15 23 33 35 57 39 19 4 42 10 50 15 21 12 48 11 55 -1z"/>
<path d="M9160 4424 c-32 -6 -89 -35 -109 -55 -9 -8 -25 -33 -36 -54 -18 -34
-20 -58 -20 -204 0 -184 2 -191 73 -259 27 -26 46 -34 95 -41 97 -13 179 2
220 41 70 68 72 76 72 258 0 205 -14 243 -104 293 -33 17 -144 30 -191 21z
m114 -59 c68 -21 103 -62 112 -132 9 -71 0 -283 -12 -291 -5 -4 -14 -16 -20
-27 -6 -11 -20 -24 -32 -30 -12 -5 -22 -13 -22 -17 0 -5 -34 -8 -75 -8 -41 0
-75 3 -75 8 0 4 -10 12 -22 17 -12 6 -26 19 -32 30 -6 11 -15 23 -20 27 -12 8
-21 220 -12 292 6 45 14 63 42 91 19 19 44 35 56 35 13 0 30 5 38 10 19 12 16
12 74 -5z"/>
<path d="M9594 4416 c-3 -8 -4 -124 -2 -258 3 -255 2 -248 50 -296 35 -35 48
-42 105 -51 64 -10 175 1 181 18 2 6 9 11 15 11 15 0 57 44 57 58 0 6 6 12 13
14 9 4 13 66 15 255 3 241 3 251 -16 257 -49 16 -50 11 -54 -242 -3 -218 -5
-239 -23 -263 -11 -15 -33 -34 -48 -43 -38 -21 -127 -21 -165 1 -59 34 -62 48
-62 306 l0 235 -22 6 c-33 8 -38 8 -44 -8z"/>
<path d="M10197 4423 c-4 -3 -7 -142 -7 -309 0 -291 1 -302 20 -307 47 -12 50
3 52 248 l3 230 43 -63 c23 -35 42 -68 42 -73 0 -5 4 -9 9 -9 5 0 13 -10 17
-22 3 -12 12 -28 18 -35 27 -31 34 -41 40 -61 4 -12 12 -22 17 -22 5 0 9 -6 9
-13 0 -8 8 -23 18 -35 10 -11 27 -38 38 -59 10 -21 25 -42 32 -46 6 -4 12 -14
12 -22 0 -18 28 -23 63 -12 l27 9 0 288 c0 253 -2 291 -16 305 -9 9 -24 15
-33 13 -14 -3 -17 -32 -21 -240 -3 -130 -8 -239 -12 -243 -4 -4 -19 13 -33 37
-15 23 -35 55 -46 70 -10 15 -19 32 -19 38 0 5 -4 10 -9 10 -5 0 -13 10 -17
22 -6 20 -13 30 -40 61 -6 7 -15 23 -18 35 -4 12 -12 22 -17 22 -5 0 -9 4 -9
9 0 5 -16 33 -35 62 -19 30 -35 57 -35 62 0 4 -12 19 -26 32 -26 24 -54 32
-67 18z"/>
<path d="M4183 4405 c-10 -11 -13 -85 -13 -296 0 -252 2 -283 17 -294 9 -7 25
-10 35 -7 16 4 18 16 18 112 l0 108 78 5 c144 10 183 22 230 69 43 43 47 53
47 123 0 53 -5 77 -20 100 -31 47 -53 65 -86 72 -16 3 -32 10 -35 14 -3 5 -62
9 -132 9 -97 -1 -130 -4 -139 -15z m307 -83 c61 -62 48 -173 -25 -208 -39 -18
-193 -26 -212 -11 -9 7 -13 46 -13 134 l0 125 108 -4 c108 -3 109 -3 142 -36z"/>
<path d="M5772 4400 c-9 -14 -12 -93 -12 -295 0 -263 1 -275 20 -285 12 -6 81
-9 182 -8 160 3 163 3 166 26 2 12 2 23 0 23 -2 1 -66 4 -143 8 l-140 6 -5 85
c-5 81 -6 85 -29 85 -18 0 -27 8 -34 28 -13 40 -1 76 34 95 l30 17 -7 88 -7
87 147 0 146 0 0 30 0 30 -168 0 c-156 0 -168 -1 -180 -20z"/>
<path d="M7684 4405 c-13 -32 15 -45 97 -45 l79 0 0 -274 c0 -252 1 -274 18
-278 9 -2 25 -2 35 0 16 3 17 25 17 277 l0 274 88 3 c87 3 87 3 90 31 l3 27
-211 0 c-179 0 -212 -2 -216 -15z"/>
<path d="M8546 4404 c-3 -9 -6 -143 -6 -299 0 -253 2 -285 16 -293 9 -5 25 -7
35 -5 17 5 19 19 21 142 l3 136 133 3 c111 2 132 5 132 18 0 37 -25 44 -149
44 l-121 0 0 105 0 105 139 0 c145 0 160 5 145 45 -9 23 -339 22 -348 -1z"/>
<path d="M10813 4405 c-10 -11 -13 -83 -13 -288 0 -338 -14 -312 162 -304 135
5 168 16 226 73 17 18 35 46 38 63 4 17 11 34 15 37 5 3 9 63 9 134 0 71 -4
131 -9 134 -4 3 -11 19 -15 36 -8 42 -71 99 -118 106 -21 4 -38 10 -38 15 0 5
-55 9 -122 9 -93 -1 -126 -4 -135 -15z m310 -86 c20 -20 37 -46 37 -58 0 -11
5 -21 10 -21 6 0 10 -46 10 -119 0 -69 -4 -122 -10 -126 -5 -3 -10 -15 -10
-27 0 -29 -62 -88 -93 -88 -14 0 -29 -4 -32 -10 -9 -14 -138 -13 -153 2 -9 9
-12 78 -12 251 l0 239 108 -3 108 -4 37 -36z"/>
<path d="M3747 3 c2064 -2 5442 -2 7505 0 2064 1 376 2 -3752 2 -4128 0 -5816
-1 -3753 -2z"/>
</g>
</svg>
